<svg width="16" height="16" viewBox="0 0 16 16" fill="none" xmlns="http://www.w3.org/2000/svg">
<path d="M7.59996 13.9745C7.54472 13.9704 7.35889 13.9472 7.18702 13.9229C4.77649 13.5826 2.81105 11.8192 2.19885 9.44741C2.06155 8.91549 2.03236 8.65846 2.03153 7.9742C2.03069 7.28805 2.05195 7.08118 2.17718 6.55678C2.6504 4.57513 4.07812 2.97016 5.97856 2.28346C6.25781 2.18256 6.66431 2.06872 6.8591 2.03689L6.95529 2.02116L6.85638 2.21866C6.56117 2.80815 6.34388 3.5362 6.25784 4.2242C6.2215 4.51469 6.22126 5.34545 6.25743 5.63045C6.38133 6.60684 6.71165 7.50867 7.22933 8.28386C8.18758 9.71877 9.64156 10.642 11.3834 10.9215C11.7347 10.9779 12.5823 10.99 12.9765 10.9444C13.1528 10.924 13.3006 10.9107 13.3048 10.9149C13.3179 10.928 13.0365 11.3657 12.8871 11.5646C11.8465 12.9505 10.2761 13.82 8.54862 13.9666C8.29863 13.9878 7.83038 13.9917 7.59996 13.9745V13.9745Z" fill="#424242"/>
</svg>
